<?xml version="1.0" encoding="UTF-8"?>
<!DOCTYPE svg PUBLIC "-//W3C//DTD SVG 1.1//EN" "http://www.w3.org/Graphics/SVG/1.1/DTD/svg11.dtd">
<!-- Creator: CorelDRAW 2020 (64-Bit) -->
<svg xmlns="http://www.w3.org/2000/svg" xml:space="preserve" width="895.55mm" height="747.383mm" version="1.1" style="shape-rendering:geometricPrecision; text-rendering:geometricPrecision; image-rendering:optimizeQuality; fill-rule:evenodd; clip-rule:evenodd"
viewBox="0 0 3960.23 3305.02"
 xmlns:xlink="http://www.w3.org/1999/xlink"
 xmlns:xodm="http://www.corel.com/coreldraw/odm/2003">
 <defs>
  <style type="text/css">
   <![CDATA[
    .str0 {stroke:black;stroke-width:0.88;stroke-miterlimit:22.9256}
    .fil2 {fill:#FEFEFE}
    .fil4 {fill:#C5C6C6}
    .fil5 {fill:#898989}
    .fil7 {fill:#5B5B5B}
    .fil8 {fill:#2B2A29}
    .fil6 {fill:#281B1C}
    .fil0 {fill:#1F1B20}
    .fil3 {fill:black}
    .fil1 {fill:#FEFEFE;fill-rule:nonzero}
   ]]>
  </style>
 </defs>
 <g id="Слой_x0020_1">
  <metadata id="CorelCorpID_0Corel-Layer"/>
  <rect class="fil0 str0" x="0.44" y="0.44" width="3959.35" height="3304.14"/>
  <g id="_2744330236784">
   <g>
    <path class="fil1" d="M975.53 2262.73l0 -333.86 0 -702.29 -310.85 0 0 703.2 0 332.95 0 181.77 0 30.92 0 113.43 0 0.91 0 79.16 79.16 0 0.91 0 151.61 0 49.85 0 1081.92 0 66.42 0 80.07 0 0 -80.07 0 -48.44 0 -22.61 0 -73.29 0 -181.77 0 -434.2 0 -202c0,-279.76 -178.22,-428.97 -387.52,-428.97 -136.77,0 -240.39,49.73 -296.34,126.41l0 -97.4 -310.85 0 0 1036.15 310.85 0 0 -565.74c0,-147.13 78.75,-213.45 192.72,-213.45 99.47,0 180.29,60.1 180.29,188.58l0 156.41 0 434.2 0 101.69 -888.26 0 0 -101.69z"/>
    <polygon class="fil1" points="3342.28,2262.73 2954.76,1744.65 3331.91,1226.57 2969.26,1226.57 2763.14,1527.52 2658.42,1527.52 2658.42,693.98 2347.57,693.98 2347.57,1527.52 2347.57,1785.04 2347.57,2661.44 2658.42,2291.64 2658.42,1945.13 2760.05,1945.13 2989.98,2262.73 "/>
   </g>
   <path class="fil2" d="M1021.71 933.14l0.35 0 -0.03 9.85 0.23 10.59 -0.35 0c-0.02,0.69 -0.05,1.38 -0.07,2.07 -2.83,69.16 -35.16,128.56 -96.3,162.57 -29.06,16.17 -62.02,24.91 -95.2,26.39l0 0.38 -10.22 -0.13 -10.23 0.13 0 -0.38c-33.17,-1.49 -66.13,-10.22 -95.19,-26.39 -61.14,-34.01 -93.48,-93.41 -96.31,-162.57 -0.03,-0.69 -0.05,-1.38 -0.07,-2.07l-0.35 0 0.23 -10.55 -0.03 -9.89 0.35 0c2.05,-39.28 13.97,-74.43 35.37,-107.84 41.45,-64.74 107.91,-108.9 152.97,-170.94l3.03 -4.18 10.22 -14.07 10.22 14.07 3.03 4.18c45.06,62.04 111.52,106.2 152.97,170.94 21.4,33.42 33.32,68.56 35.37,107.84z"/>
   <path class="fil3" d="M993.48 2630.98l1140.87 0 0 -187.99c0,-22.26 -17.99,-40.63 -39.79,-40.63l-1292.05 0c-16.55,0 -30.89,10.57 -36.85,25.4l407.13 0c6.99,0 12.7,5.72 12.7,12.7l0 0c0,6.99 -5.72,12.7 -12.7,12.7l-287.84 0c-6.99,0 -12.7,5.72 -12.7,12.7 0,6.99 5.72,12.7 12.7,12.7l224.12 0c6.98,0 12.7,5.72 12.7,12.7l0 0c0,6.99 -5.72,12.7 -12.7,12.7l-287.84 0c-6.99,0 -12.7,5.72 -12.7,12.7 0,6.99 5.72,12.7 12.7,12.7l184.29 0c6.99,0 12.7,5.72 12.7,12.7l0 0c0,6.99 -5.72,12.7 -12.7,12.7l-287.84 0c-6.99,0 -12.7,5.72 -12.7,12.7 0,6.99 5.72,12.7 12.7,12.7l563.66 0c6.99,0 12.7,5.72 12.7,12.7l0 0c0,6.99 -5.72,12.7 -12.7,12.7l-287.93 0c-6.95,0.05 -12.62,5.74 -12.62,12.7 0,6.99 5.72,12.7 12.7,12.7zm507.43 -151.77l6.99 -7.6c-6.48,-4.36 -14.13,-7.55 -22.95,-9.57 -8.81,-2.03 -18.95,-3.04 -30.39,-3.04 -17.32,0 -30.52,2.81 -39.59,8.43 -9.07,5.62 -13.6,13.4 -13.6,23.33 0,5.47 1.32,10 3.95,13.6 2.63,3.6 6.69,6.41 12.16,8.43 5.07,1.92 11.09,3.17 18.08,3.72 6.99,0.56 15.1,1.04 24.32,1.44 7.5,0.3 14.06,0.89 19.68,1.75 5.62,0.86 10.28,2.1 13.98,3.72 3.7,1.62 6.46,3.72 8.28,6.31 1.82,2.58 2.74,5.85 2.74,9.8 0,7.9 -4.03,14.13 -12.08,18.69 -8.05,4.56 -19.78,6.84 -35.18,6.84 -9.73,0 -18.87,-1.24 -27.43,-3.72 -8.56,-2.48 -16.94,-6.36 -25.15,-11.63l-5.77 8.36c7.7,5.37 16.59,9.42 26.67,12.16 10.08,2.74 21.35,4.1 33.81,4.1 18.54,0 32.62,-3.11 42.25,-9.35 9.62,-6.23 14.44,-14.92 14.44,-26.06 0,-11.65 -5.37,-19.81 -16.11,-24.47 -5.47,-2.33 -11.95,-3.8 -19.45,-4.41 -7.5,-0.61 -16.06,-1.11 -25.68,-1.52 -6.99,-0.3 -13.09,-0.81 -18.31,-1.52 -5.22,-0.71 -9.57,-1.77 -13.07,-3.19 -3.5,-1.42 -6.13,-3.27 -7.9,-5.55 -1.77,-2.28 -2.66,-5.19 -2.66,-8.74 0,-6.69 3.57,-11.9 10.71,-15.65 7.14,-3.75 17.65,-5.62 31.53,-5.62 8.51,0 16.49,0.86 23.93,2.58 7.45,1.72 14.72,4.51 21.81,8.36zm143.56 -7.9l0 -9.57 -115.04 0 0 9.57 52.58 0 0 100.45 9.88 0 0 -100.45 52.58 0zm131.7 -9.57l-12.01 0 -47.57 55.93 -47.41 -55.93 -12.01 0 54.71 65.8 0 44.22 9.88 0 0 -44.22 54.41 -65.8zm124.71 110.03l0 -9.57 -84.95 0 0 -100.45 -9.88 0 0 110.03 94.83 0zm133.68 0l0 -9.57 -96.96 0 0 -43.92 64.44 0 0 -9.57 -64.44 0 0 -37.38 92.7 0 0 -9.57 -102.58 0 0 110.03 106.83 0z"/>
   <path class="fil4" d="M810.07 683.19c-20.23,24.67 -43.26,46.87 -66.02,69.21 -26.3,25.81 -53.14,52.54 -73.11,83.72 -19.34,30.21 -30.16,61.69 -32.15,97.11l48.56 0c1.92,-25.88 10.13,-48.68 24.39,-70.95 18.34,-28.65 43.73,-53.18 67.91,-76.89 10.21,-10.01 20.42,-20.01 30.43,-30.22l0 -71.98zm-13.27 35.03c-14.07,14.95 -28.81,29.27 -43.47,43.65 -25.58,25.1 -51.82,51.1 -71.23,81.41 -15.4,24.05 -25.13,49.04 -28.77,76.69l22.15 0c3.53,-23.35 12.04,-44.5 25.07,-64.84 19.06,-29.77 44.7,-54.61 69.79,-79.21 8.86,-8.69 17.72,-17.37 26.45,-26.19l0 -31.5z"/>
   <path class="fil5" d="M638.57 953.3c0.02,0.47 0.03,0.95 0.05,1.42 2.54,62.09 30.96,115.13 85.92,145.7 26.1,14.52 55.74,22.38 85.53,23.82l0 -48.51c-21.53,-1.36 -42.99,-7.11 -61.86,-17.58 -40.08,-22.25 -59.16,-59.97 -61.14,-104.85l-48.51 0zm14.19 13.27c5.35,52.03 30.99,95.99 78.22,122.26 20.25,11.26 42.82,18.21 65.82,20.99l0 -22.08c-19.23,-2.63 -38.06,-8.56 -55.03,-17.98 -40.29,-22.37 -61.85,-59.21 -66.94,-103.18l-22.07 0z"/>
   <path class="fil6" d="M986.87 919.96c-3.64,-27.64 -13.37,-52.63 -28.77,-76.69 -19.41,-30.31 -45.65,-56.31 -71.23,-81.41 -14.66,-14.38 -29.4,-28.7 -43.47,-43.65l0 31.5c8.73,8.82 17.59,17.5 26.45,26.19 25.09,24.6 50.73,49.44 69.79,79.21 13.03,20.35 21.54,41.5 25.07,64.84l22.15 0zm14.56 13.27c-1.99,-35.42 -12.81,-66.9 -32.15,-97.11 -19.96,-31.18 -46.81,-57.91 -73.11,-83.72 -22.77,-22.34 -45.8,-44.55 -66.02,-69.21l0 71.98c10.01,10.21 20.22,20.22 30.43,30.22 24.18,23.7 49.56,48.24 67.91,76.89 14.26,22.27 22.46,45.07 24.39,70.95l48.56 0z"/>
   <path class="fil7" d="M987.44 966.57l-22.07 0c-5.1,43.97 -26.65,80.82 -66.95,103.18 -16.97,9.42 -35.8,15.35 -55.03,17.98l0 22.08c23,-2.78 45.57,-9.73 65.82,-20.99 47.23,-26.27 72.86,-70.23 78.21,-122.25zm14.19 -13.27l-48.51 0c-1.98,44.88 -21.06,82.6 -61.14,104.85 -18.86,10.47 -40.33,16.22 -61.86,17.58l0 48.51c29.8,-1.44 59.44,-9.31 85.54,-23.83 54.95,-30.56 83.37,-83.6 85.91,-145.69 0.02,-0.47 0.04,-0.95 0.05,-1.42z"/>
   <path class="fil8" d="M820.11 776.5c-6.11,6.13 -12.28,12.2 -18.48,18.27 -24.68,24.15 -52.57,50.25 -71.25,79.43 -12.75,19.91 -19.92,39.91 -21.15,63.58l-0.2 3.86 0.01 2.14 -0.06 2.59 0.13 4.33c0.01,0.38 0.02,0.77 0.04,1.15 1.53,37.37 16.37,68.35 49.69,86.88 16.74,9.31 36.02,14.17 55.1,15.03l3.95 0.18 2.21 -0.03 2.2 0.03 3.95 -0.18c19.08,-0.86 38.36,-5.72 55.11,-15.03 33.32,-18.53 48.16,-49.51 49.69,-86.88 0.02,-0.38 0.03,-0.76 0.04,-1.15l0.13 -4.34 -0.06 -2.62 0.01 -2.13 -0.2 -3.83c-1.23,-23.66 -8.4,-43.66 -21.15,-63.58 -4.86,-7.59 -10.27,-14.82 -15.98,-21.78 -16.79,-20.46 -36.36,-39.15 -55.26,-57.64 -6.21,-6.08 -12.37,-12.15 -18.47,-18.27z"/>
  </g>
 </g>
</svg>
